<svg width="13" height="12" viewBox="0 0 13 12" fill="none" xmlns="http://www.w3.org/2000/svg">
<path d="M11.84 8.25333C11.02 8.25333 10.2267 8.12 9.48667 7.88C9.25333 7.8 8.99333 7.86 8.81333 8.04L7.76667 9.35333C5.88 8.45333 4.11333 6.75333 3.17333 4.8L4.47333 3.69333C4.65333 3.50667 4.70667 3.24667 4.63333 3.01333C4.38667 2.27333 4.26 1.48 4.26 0.66C4.26 0.3 3.96 0 3.6 0H1.29333C0.933333 0 0.5 0.16 0.5 0.66C0.5 6.85333 5.65333 12 11.84 12C12.3133 12 12.5 11.58 12.5 11.2133V8.91333C12.5 8.55333 12.2 8.25333 11.84 8.25333Z" fill="#0178FF"/>
</svg>
