<svg width="19" height="21" viewBox="0 0 19 21" fill="none" xmlns="http://www.w3.org/2000/svg">
<path d="M9.53568 2.39697L7.88262 3.94243L5.31119 3.39697L4.30099 5.6697L2.09691 6.21515L2.37242 8.6697L0.443848 10.397L1.8214 12.3061L1.0867 14.4879L3.19895 15.8515L3.47446 18.2152H6.13773L7.79079 20.397L9.53568 18.9424L11.7398 20.2152L13.0255 18.2152H15.5051L15.8724 15.8515L17.9847 14.4879L17.1581 12.3061L18.4438 10.397L16.6989 8.6697L16.8826 6.21515L14.8622 5.6697L13.6683 3.39697L11.2806 3.94243L9.53568 2.39697Z" fill="#25D366"/>
<path d="M6.1835 10.7949L5.26514 11.897L8.38759 14.7439L13.6223 8.40718L12.4284 7.39697L8.11208 12.5398L6.1835 10.7949Z" fill="white"/>
</svg>
