<svg width="232" height="130" viewBox="0 0 232 130" fill="none" xmlns="http://www.w3.org/2000/svg">
<path d="M226 -0.333496H6C2.68629 -0.333496 0 2.3528 0 5.6665V123.667C0 126.98 2.68629 129.667 6 129.667H226C229.314 129.667 232 126.98 232 123.667V5.6665C232 2.3528 229.314 -0.333496 226 -0.333496Z" fill="#F5F5F5"/>
<path d="M136.077 51.9649L122.952 38.8399C122.777 38.6659 122.57 38.5279 122.343 38.4337C122.115 38.3396 121.871 38.2913 121.625 38.2915H99.125C98.13 38.2915 97.177 38.6866 96.473 39.3899C95.7701 40.0931 95.375 41.0469 95.375 42.0415V83.2915C95.375 84.2861 95.7701 85.2399 96.473 85.9432C97.177 86.6464 98.13 87.0415 99.125 87.0415H132.875C133.87 87.0415 134.823 86.6464 135.527 85.9432C136.23 85.2399 136.625 84.2861 136.625 83.2915V53.2915C136.625 53.0452 136.577 52.8013 136.483 52.5737C136.389 52.346 136.251 52.1392 136.077 51.9649ZM123.5 73.9165H108.5C108.003 73.9165 107.526 73.719 107.174 73.3673C106.823 73.0157 106.625 72.5388 106.625 72.0415C106.625 71.5442 106.823 71.0673 107.174 70.7157C107.526 70.364 108.003 70.1665 108.5 70.1665H123.5C123.997 70.1665 124.474 70.364 124.826 70.7157C125.177 71.0673 125.375 71.5442 125.375 72.0415C125.375 72.5388 125.177 73.0157 124.826 73.3673C124.474 73.719 123.997 73.9165 123.5 73.9165ZM123.5 66.4165H108.5C108.003 66.4165 107.526 66.219 107.174 65.8673C106.823 65.5157 106.625 65.0388 106.625 64.5415C106.625 64.0442 106.823 63.5673 107.174 63.2157C107.526 62.864 108.003 62.6665 108.5 62.6665H123.5C123.997 62.6665 124.474 62.864 124.826 63.2157C125.177 63.5673 125.375 64.0442 125.375 64.5415C125.375 65.0388 125.177 65.5157 124.826 65.8673C124.474 66.219 123.997 66.4165 123.5 66.4165ZM121.625 53.2915V42.979L131.938 53.2915H121.625Z" fill="#8C8C8C"/>
</svg>
