<svg width="33" height="33" viewBox="0 0 33 33" fill="none" xmlns="http://www.w3.org/2000/svg">
<rect x="0.183105" y="0.502441" width="31.9777" height="31.9777" rx="15.9888" fill="#00927C"/>
<g clip-path="url(#clip0_1394_25119)">
<path d="M16.0624 17.8567C17.3895 17.8567 18.4527 16.7855 18.4527 15.4584L18.4607 10.6618C18.4607 9.33468 17.3895 8.26343 16.0624 8.26343C14.7353 8.26343 13.6641 9.33468 13.6641 10.6618V15.4584C13.6641 16.7855 14.7353 17.8567 16.0624 17.8567ZM20.2994 15.4584C20.2994 17.8567 18.2689 19.5356 16.0624 19.5356C13.8559 19.5356 11.8254 17.8567 11.8254 15.4584H10.4663C10.4663 18.1845 12.6408 20.4389 15.263 20.8306V23.4528H16.8618V20.8306C19.484 20.4469 21.6585 18.1925 21.6585 15.4584H20.2994Z" fill="white"/>
</g>
<defs>
<clipPath id="clip0_1394_25119">
<rect width="19.1866" height="19.1866" fill="white" transform="translate(6.57861 6.89795)"/>
</clipPath>
</defs>
</svg>
