<svg width="12" height="20" viewBox="0 0 12 20" fill="none" xmlns="http://www.w3.org/2000/svg">
<path d="M9.15802 18.9618C9.39182 19.1956 9.68938 19.3231 10.0401 19.3231C10.7415 19.3231 11.3047 18.7705 11.3047 18.0691C11.3047 17.7184 11.1559 17.3996 10.9115 17.1552L3.47256 9.88626L10.9115 2.63862C11.1559 2.3942 11.3047 2.06476 11.3047 1.72469C11.3047 1.02331 10.7415 0.470703 10.0401 0.470703C9.68938 0.470703 9.39182 0.598228 9.15802 0.832023L0.890184 8.90858C0.592626 9.18488 0.454475 9.52495 0.443848 9.89689C0.443848 10.2688 0.592626 10.5876 0.890184 10.8746L9.15802 18.9618Z" fill="#468CF7"/>
</svg>
