<svg width="19" height="19" viewBox="0 0 19 19" fill="none" xmlns="http://www.w3.org/2000/svg">
<g clip-path="url(#clip0_1394_25094)">
<path d="M15.2706 11.8251C14.3506 11.8251 13.4604 11.6755 12.6301 11.4062C12.3683 11.3165 12.0766 11.3838 11.8746 11.5858L10.7002 13.0594C8.58336 12.0495 6.60112 10.1421 5.54642 7.95041L7.00505 6.7087C7.20701 6.49926 7.26685 6.20753 7.18457 5.94573C6.9078 5.11543 6.76568 4.22529 6.76568 3.30523C6.76568 2.9013 6.42907 2.5647 6.02515 2.5647H3.43701C3.03308 2.5647 2.54688 2.74422 2.54688 3.30523C2.54688 10.2543 8.32903 16.029 15.2706 16.029C15.8017 16.029 16.0112 15.5577 16.0112 15.1463V12.5657C16.0112 12.1617 15.6745 11.8251 15.2706 11.8251Z" fill="white"/>
</g>
<defs>
<clipPath id="clip0_1394_25094">
<rect width="17.9524" height="17.9524" fill="white" transform="translate(0.303711 0.320801)"/>
</clipPath>
</defs>
</svg>
