<svg width="12" height="12" viewBox="0 0 12 12" fill="none" xmlns="http://www.w3.org/2000/svg">
<path d="M11.0631 7.83446C10.2964 7.83446 9.55458 7.70979 8.86267 7.48538C8.64449 7.41058 8.40139 7.46668 8.23309 7.63499L7.25443 8.86298C5.49036 8.02146 3.8385 6.43193 2.95958 4.60552L4.1751 3.57077C4.34341 3.39623 4.39327 3.15313 4.32471 2.93496C4.09407 2.24304 3.97563 1.50126 3.97563 0.734544C3.97563 0.397937 3.69513 0.117432 3.35852 0.117432H1.20174C0.865136 0.117432 0.459961 0.267035 0.459961 0.734544C0.459961 6.52543 5.27843 11.3377 11.0631 11.3377C11.5057 11.3377 11.6802 10.945 11.6802 10.6021V8.45157C11.6802 8.11496 11.3997 7.83446 11.0631 7.83446Z" fill="#0096DE"/>
</svg>
