<svg width="46" height="46" viewBox="0 0 46 46" fill="none" xmlns="http://www.w3.org/2000/svg">
<g style="mix-blend-mode:multiply">
<rect x="3" y="3" width="40" height="40" rx="20" fill="#F4EBFF"/>
<rect x="3" y="3" width="40" height="40" rx="20" stroke="#F9F5FF" stroke-width="6"/>
<path d="M22.9998 26.3333V30.5M22.9998 26.3333L27.9998 30.5M22.9998 26.3333L17.9998 30.5M19.6665 18.8333V23M22.9998 20.5V23M26.3332 22.1667V23M31.3332 15.5H14.6665M15.4998 15.5H30.4998V22.3333C30.4998 23.7335 30.4998 24.4335 30.2274 24.9683C29.9877 25.4387 29.6052 25.8212 29.1348 26.0608C28.6 26.3333 27.9 26.3333 26.4998 26.3333H19.4998C18.0997 26.3333 17.3996 26.3333 16.8649 26.0608C16.3945 25.8212 16.012 25.4387 15.7723 24.9683C15.4998 24.4335 15.4998 23.7335 15.4998 22.3333V15.5Z" stroke="#7F56D9" stroke-width="1.33333" stroke-linecap="round" stroke-linejoin="round"/>
</g>
</svg>
