<svg width="224" height="37" viewBox="0 0 224 37" fill="none" xmlns="http://www.w3.org/2000/svg">
<rect x="0.859375" y="0.539062" width="222.909" height="35.9047" rx="17.9524" fill="white"/>
<g clip-path="url(#clip0_1394_25105)">
<path d="M18.8071 11.0105C14.6781 11.0105 11.3345 14.3616 11.3345 18.4907C11.3345 22.6197 14.6781 25.9708 18.8071 25.9708C22.9437 25.9708 26.2948 22.6197 26.2948 18.4907C26.2948 14.3616 22.9437 11.0105 18.8071 11.0105ZM18.8146 24.4748C15.5084 24.4748 12.8305 21.7969 12.8305 18.4907C12.8305 15.1844 15.5084 12.5065 18.8146 12.5065C22.1209 12.5065 24.7987 15.1844 24.7987 18.4907C24.7987 21.7969 22.1209 24.4748 18.8146 24.4748ZM21.4327 17.7426C22.0535 17.7426 22.5547 17.2415 22.5547 16.6206C22.5547 15.9998 22.0535 15.4986 21.4327 15.4986C20.8118 15.4986 20.3107 15.9998 20.3107 16.6206C20.3107 17.2415 20.8118 17.7426 21.4327 17.7426ZM16.1966 17.7426C16.8174 17.7426 17.3186 17.2415 17.3186 16.6206C17.3186 15.9998 16.8174 15.4986 16.1966 15.4986C15.5757 15.4986 15.0745 15.9998 15.0745 16.6206C15.0745 17.2415 15.5757 17.7426 16.1966 17.7426ZM18.8146 22.6047C20.5575 22.6047 22.0386 21.5126 22.637 19.9867H14.9923C15.5907 21.5126 17.0718 22.6047 18.8146 22.6047Z" fill="#9DA3A7"/>
</g>
<path d="M35.4279 12.9429V22.5151H34.1787V12.9429H35.4279ZM38.5047 12.9429V13.9816H31.1085V12.9429H38.5047ZM41.2659 21.7788L43.2448 15.4017H44.5465L41.6932 23.6131C41.6275 23.7884 41.5398 23.9768 41.4302 24.1784C41.325 24.3844 41.1892 24.5795 41.0226 24.7636C40.8561 24.9476 40.6545 25.0967 40.4178 25.2106C40.1855 25.329 39.9072 25.3881 39.5828 25.3881C39.4864 25.3881 39.3637 25.375 39.2147 25.3487C39.0657 25.3224 38.9605 25.3005 38.8991 25.2829L38.8925 24.2968C38.9276 24.3012 38.9824 24.3056 39.0569 24.3099C39.1358 24.3187 39.1906 24.3231 39.2213 24.3231C39.4974 24.3231 39.7319 24.2858 39.9247 24.2113C40.1176 24.1412 40.2797 24.0207 40.4112 23.8497C40.5471 23.6832 40.6632 23.4531 40.7597 23.1594L41.2659 21.7788ZM39.8129 15.4017L41.6603 20.9241L41.9759 22.2061L41.1015 22.6532L38.4849 15.4017H39.8129ZM46.8607 16.7692V25.2501H45.6378V15.4017H46.7555L46.8607 16.7692ZM51.6534 18.8992V19.0373C51.6534 19.5545 51.592 20.0344 51.4693 20.4771C51.3466 20.9154 51.1669 21.2967 50.9302 21.621C50.6979 21.9454 50.4108 22.1974 50.0689 22.3771C49.7271 22.5568 49.3348 22.6466 48.8921 22.6466C48.4407 22.6466 48.0418 22.5721 47.6956 22.4231C47.3493 22.2741 47.0557 22.0571 46.8146 21.7722C46.5736 21.4873 46.3807 21.1455 46.2361 20.7466C46.0958 20.3478 45.9994 19.8985 45.9468 19.3989V18.6626C45.9994 18.1366 46.098 17.6655 46.2427 17.2491C46.3873 16.8327 46.578 16.4777 46.8146 16.184C47.0557 15.886 47.3472 15.6603 47.689 15.5069C48.0309 15.3491 48.4254 15.2702 48.8724 15.2702C49.3195 15.2702 49.7161 15.3579 50.0624 15.5332C50.4086 15.7041 50.7001 15.9495 50.9368 16.2695C51.1734 16.5895 51.3509 16.973 51.4693 17.42C51.592 17.8627 51.6534 18.3558 51.6534 18.8992ZM50.4305 19.0373V18.8992C50.4305 18.5442 50.3933 18.2111 50.3188 17.8999C50.2443 17.5844 50.1281 17.3082 49.9703 17.0716C49.8169 16.8305 49.6197 16.642 49.3786 16.5062C49.1376 16.3659 48.8505 16.2958 48.5174 16.2958C48.2106 16.2958 47.9432 16.3484 47.7153 16.4536C47.4918 16.5588 47.3011 16.7012 47.1434 16.8809C46.9856 17.0562 46.8563 17.2578 46.7555 17.4858C46.659 17.7093 46.5867 17.9416 46.5385 18.1826V19.8854C46.6262 20.1922 46.7489 20.4815 46.9067 20.7532C47.0645 21.0206 47.2748 21.2375 47.5378 21.4041C47.8008 21.5662 48.1317 21.6473 48.5305 21.6473C48.8593 21.6473 49.142 21.5794 49.3786 21.4435C49.6197 21.3033 49.8169 21.1126 49.9703 20.8715C50.1281 20.6305 50.2443 20.3544 50.3188 20.0432C50.3933 19.7276 50.4305 19.3923 50.4305 19.0373ZM56.1568 22.6466C55.6615 22.6466 55.2123 22.5633 54.809 22.3968C54.4102 22.2259 54.0661 21.987 53.7769 21.6802C53.492 21.3734 53.2728 21.0096 53.1194 20.5889C52.966 20.1681 52.8893 19.7079 52.8893 19.2082V18.9321C52.8893 18.3536 52.9748 17.8386 53.1457 17.3871C53.3167 16.9313 53.549 16.5456 53.8426 16.2301C54.1363 15.9145 54.4694 15.6756 54.8419 15.5135C55.2145 15.3513 55.6002 15.2702 55.999 15.2702C56.5074 15.2702 56.9457 15.3579 57.3139 15.5332C57.6864 15.7085 57.991 15.9539 58.2277 16.2695C58.4644 16.5807 58.6397 16.9489 58.7537 17.374C58.8676 17.7948 58.9246 18.255 58.9246 18.7546V19.3003H53.6125V18.3076H57.7083V18.2155C57.6908 17.8999 57.6251 17.5931 57.5111 17.2951C57.4015 16.9971 57.2262 16.7516 56.9852 16.5588C56.7441 16.3659 56.4154 16.2695 55.999 16.2695C55.7229 16.2695 55.4687 16.3287 55.2364 16.447C55.0041 16.561 54.8047 16.7319 54.6381 16.9598C54.4716 17.1877 54.3423 17.466 54.2502 17.7948C54.1582 18.1235 54.1122 18.5026 54.1122 18.9321V19.2082C54.1122 19.5457 54.1582 19.8635 54.2502 20.1615C54.3467 20.4552 54.4847 20.7138 54.6644 20.9373C54.8485 21.1608 55.0698 21.3361 55.3284 21.4632C55.5914 21.5903 55.8894 21.6539 56.2225 21.6539C56.6521 21.6539 57.0158 21.5662 57.3139 21.3909C57.6119 21.2156 57.8727 20.9811 58.0962 20.6875L58.8326 21.2726C58.6792 21.5049 58.4841 21.7262 58.2474 21.9366C58.0108 22.147 57.7193 22.3179 57.373 22.4494C57.0312 22.5809 56.6258 22.6466 56.1568 22.6466ZM67.8789 21.2989V17.637C67.8789 17.3565 67.8219 17.1132 67.7079 16.9072C67.5984 16.6968 67.4318 16.5347 67.2083 16.4207C66.9848 16.3068 66.7086 16.2498 66.3799 16.2498C66.0731 16.2498 65.8036 16.3024 65.5713 16.4076C65.3434 16.5128 65.1637 16.6508 65.0322 16.8217C64.9051 16.9927 64.8415 17.1768 64.8415 17.374H63.6253C63.6253 17.1198 63.691 16.8678 63.8225 16.6179C63.954 16.3681 64.1424 16.1424 64.3879 15.9408C64.6377 15.7348 64.9357 15.5726 65.282 15.4543C65.6326 15.3316 66.0227 15.2702 66.4522 15.2702C66.9694 15.2702 67.4252 15.3579 67.8197 15.5332C68.2185 15.7085 68.5297 15.9737 68.7533 16.3287C68.9812 16.6793 69.0951 17.1198 69.0951 17.6501V20.9636C69.0951 21.2003 69.1148 21.4523 69.1543 21.7196C69.1981 21.987 69.2617 22.2171 69.3449 22.4099V22.5151H68.0761C68.0147 22.3749 67.9665 22.1886 67.9315 21.9563C67.8964 21.7196 67.8789 21.5005 67.8789 21.2989ZM68.0892 18.2024L68.1024 19.057H66.873C66.5267 19.057 66.2177 19.0855 65.946 19.1425C65.6743 19.1951 65.4464 19.2762 65.2623 19.3857C65.0782 19.4953 64.9379 19.6334 64.8415 19.7999C64.7451 19.9621 64.6969 20.1528 64.6969 20.3719C64.6969 20.5954 64.7473 20.7992 64.8481 20.9833C64.9489 21.1674 65.1001 21.3142 65.3017 21.4238C65.5077 21.529 65.7597 21.5816 66.0578 21.5816C66.4303 21.5816 66.759 21.5027 67.0439 21.3449C67.3288 21.1871 67.5545 20.9943 67.7211 20.7664C67.892 20.5384 67.9841 20.3171 67.9972 20.1023L68.5166 20.6875C68.4859 20.8715 68.4026 21.0754 68.2668 21.2989C68.1309 21.5224 67.949 21.7372 67.7211 21.9432C67.4976 22.1448 67.2302 22.3135 66.919 22.4494C66.6122 22.5809 66.266 22.6466 65.8803 22.6466C65.3981 22.6466 64.9752 22.5524 64.6114 22.3639C64.252 22.1755 63.9715 21.9234 63.7699 21.6079C63.5727 21.2879 63.474 20.9307 63.474 20.5363C63.474 20.1549 63.5486 19.8197 63.6976 19.5304C63.8466 19.2367 64.0614 18.9935 64.3419 18.8006C64.6224 18.6034 64.9599 18.4544 65.3543 18.3536C65.7488 18.2528 66.1893 18.2024 66.6758 18.2024H68.0892ZM75.5577 16.8152V22.5151H74.3349V15.4017H75.492L75.5577 16.8152ZM75.3079 18.6889L74.7425 18.6691C74.7469 18.1826 74.8104 17.7334 74.9331 17.3214C75.0559 16.905 75.2378 16.5434 75.4788 16.2366C75.7199 15.9298 76.0201 15.6931 76.3795 15.5266C76.7389 15.3557 77.1553 15.2702 77.6286 15.2702C77.9617 15.2702 78.2685 15.3184 78.549 15.4148C78.8295 15.5069 79.0728 15.6537 79.2788 15.8553C79.4848 16.0569 79.6448 16.3155 79.7587 16.6311C79.8727 16.9467 79.9297 17.328 79.9297 17.775V22.5151H78.7134V17.8342C78.7134 17.4617 78.6498 17.1636 78.5227 16.9401C78.4 16.7166 78.2247 16.5544 77.9968 16.4536C77.7689 16.3484 77.5015 16.2958 77.1947 16.2958C76.8353 16.2958 76.5351 16.3594 76.294 16.4865C76.053 16.6136 75.8601 16.7889 75.7155 17.0124C75.5709 17.2359 75.4657 17.4923 75.3999 17.7816C75.3386 18.0665 75.3079 18.3689 75.3079 18.6889ZM79.9165 18.0183L79.1013 18.2681C79.1057 17.878 79.1692 17.5033 79.2919 17.1439C79.419 16.7845 79.6009 16.4645 79.8376 16.184C80.0787 15.9035 80.3745 15.6822 80.7252 15.52C81.0758 15.3535 81.4768 15.2702 81.9283 15.2702C82.3096 15.2702 82.6471 15.3206 82.9407 15.4214C83.2387 15.5222 83.4886 15.6778 83.6902 15.8882C83.8962 16.0942 84.0518 16.3594 84.157 16.6837C84.2622 17.008 84.3147 17.3937 84.3147 17.8408V22.5151H83.0919V17.8276C83.0919 17.4288 83.0284 17.1198 82.9013 16.9006C82.7785 16.6771 82.6032 16.5215 82.3753 16.4339C82.1518 16.3418 81.8844 16.2958 81.5732 16.2958C81.3059 16.2958 81.0692 16.3418 80.8632 16.4339C80.6572 16.5259 80.4841 16.653 80.3438 16.8152C80.2036 16.973 80.0962 17.1548 80.0217 17.3608C79.9516 17.5668 79.9165 17.786 79.9165 18.0183ZM89.1075 22.6466C88.6122 22.6466 88.1629 22.5633 87.7597 22.3968C87.3609 22.2259 87.0168 21.987 86.7275 21.6802C86.4426 21.3734 86.2235 21.0096 86.0701 20.5889C85.9167 20.1681 85.84 19.7079 85.84 19.2082V18.9321C85.84 18.3536 85.9255 17.8386 86.0964 17.3871C86.2673 16.9313 86.4996 16.5456 86.7933 16.2301C87.0869 15.9145 87.42 15.6756 87.7926 15.5135C88.1651 15.3513 88.5508 15.2702 88.9497 15.2702C89.4581 15.2702 89.8964 15.3579 90.2645 15.5332C90.6371 15.7085 90.9417 15.9539 91.1784 16.2695C91.4151 16.5807 91.5904 16.9489 91.7043 17.374C91.8183 17.7948 91.8753 18.255 91.8753 18.7546V19.3003H86.5632V18.3076H90.659V18.2155C90.6415 17.8999 90.5757 17.5931 90.4618 17.2951C90.3522 16.9971 90.1769 16.7516 89.9358 16.5588C89.6948 16.3659 89.366 16.2695 88.9497 16.2695C88.6735 16.2695 88.4193 16.3287 88.187 16.447C87.9547 16.561 87.7553 16.7319 87.5888 16.9598C87.4222 17.1877 87.2929 17.466 87.2009 17.7948C87.1088 18.1235 87.0628 18.5026 87.0628 18.9321V19.2082C87.0628 19.5457 87.1088 19.8635 87.2009 20.1615C87.2973 20.4552 87.4354 20.7138 87.6151 20.9373C87.7992 21.1608 88.0205 21.3361 88.2791 21.4632C88.5421 21.5903 88.8401 21.6539 89.1732 21.6539C89.6027 21.6539 89.9665 21.5662 90.2645 21.3909C90.5626 21.2156 90.8234 20.9811 91.0469 20.6875L91.7832 21.2726C91.6298 21.5049 91.4348 21.7262 91.1981 21.9366C90.9614 22.147 90.67 22.3179 90.3237 22.4494C89.9818 22.5809 89.5764 22.6466 89.1075 22.6466ZM97.4372 20.6283C97.4372 20.453 97.3977 20.2908 97.3188 20.1418C97.2443 19.9884 97.0887 19.8503 96.852 19.7276C96.6197 19.6005 96.2691 19.4909 95.8001 19.3989C95.4057 19.3156 95.0485 19.217 94.7285 19.103C94.413 18.9891 94.1434 18.851 93.9199 18.6889C93.7007 18.5267 93.532 18.336 93.4137 18.1169C93.2953 17.8977 93.2361 17.6413 93.2361 17.3477C93.2361 17.0672 93.2975 16.802 93.4202 16.5522C93.5473 16.3024 93.7248 16.081 93.9528 15.8882C94.185 15.6953 94.4634 15.5441 94.7877 15.4346C95.112 15.325 95.4736 15.2702 95.8725 15.2702C96.4422 15.2702 96.9287 15.371 97.332 15.5726C97.7352 15.7742 98.0442 16.0438 98.259 16.3813C98.4737 16.7144 98.5811 17.0847 98.5811 17.4923H97.3648C97.3648 17.2951 97.3057 17.1044 97.1873 16.9204C97.0734 16.7319 96.9046 16.5763 96.6811 16.4536C96.462 16.3309 96.1924 16.2695 95.8725 16.2695C95.535 16.2695 95.261 16.3221 95.0507 16.4273C94.8447 16.5281 94.6935 16.6574 94.597 16.8152C94.505 16.973 94.459 17.1395 94.459 17.3148C94.459 17.4463 94.4809 17.5646 94.5247 17.6698C94.5729 17.7706 94.6562 17.8649 94.7745 17.9525C94.8929 18.0358 95.0594 18.1147 95.2742 18.1892C95.489 18.2637 95.7629 18.3382 96.096 18.4127C96.6789 18.5442 97.1588 18.702 97.5358 18.8861C97.9127 19.0702 98.1932 19.2959 98.3773 19.5633C98.5614 19.8306 98.6534 20.1549 98.6534 20.5363C98.6534 20.8474 98.5877 21.1323 98.4562 21.3909C98.3291 21.6495 98.1428 21.873 97.8974 22.0615C97.6563 22.2456 97.367 22.3902 97.0295 22.4954C96.6964 22.5962 96.3217 22.6466 95.9053 22.6466C95.2786 22.6466 94.7482 22.5349 94.3143 22.3113C93.8804 22.0878 93.5517 21.7985 93.3282 21.4435C93.1047 21.0885 92.9929 20.7138 92.9929 20.3193H94.2157C94.2333 20.6524 94.3297 20.9176 94.505 21.1148C94.6803 21.3076 94.8951 21.4457 95.1493 21.529C95.4035 21.6079 95.6555 21.6473 95.9053 21.6473C96.2384 21.6473 96.5167 21.6035 96.7403 21.5158C96.9682 21.4282 97.1413 21.3076 97.2597 21.1542C97.378 21.0008 97.4372 20.8255 97.4372 20.6283ZM104.393 20.6283C104.393 20.453 104.353 20.2908 104.274 20.1418C104.2 19.9884 104.044 19.8503 103.808 19.7276C103.575 19.6005 103.225 19.4909 102.756 19.3989C102.361 19.3156 102.004 19.217 101.684 19.103C101.369 18.9891 101.099 18.851 100.876 18.6889C100.656 18.5267 100.488 18.336 100.369 18.1169C100.251 17.8977 100.192 17.6413 100.192 17.3477C100.192 17.0672 100.253 16.802 100.376 16.5522C100.503 16.3024 100.681 16.081 100.908 15.8882C101.141 15.6953 101.419 15.5441 101.743 15.4346C102.068 15.325 102.429 15.2702 102.828 15.2702C103.398 15.2702 103.884 15.371 104.288 15.5726C104.691 15.7742 105 16.0438 105.215 16.3813C105.429 16.7144 105.537 17.0847 105.537 17.4923H104.321C104.321 17.2951 104.261 17.1044 104.143 16.9204C104.029 16.7319 103.86 16.5763 103.637 16.4536C103.418 16.3309 103.148 16.2695 102.828 16.2695C102.491 16.2695 102.217 16.3221 102.006 16.4273C101.8 16.5281 101.649 16.6574 101.553 16.8152C101.461 16.973 101.415 17.1395 101.415 17.3148C101.415 17.4463 101.437 17.5646 101.48 17.6698C101.529 17.7706 101.612 17.8649 101.73 17.9525C101.849 18.0358 102.015 18.1147 102.23 18.1892C102.445 18.2637 102.719 18.3382 103.052 18.4127C103.635 18.5442 104.115 18.702 104.491 18.8861C104.868 19.0702 105.149 19.2959 105.333 19.5633C105.517 19.8306 105.609 20.1549 105.609 20.5363C105.609 20.8474 105.543 21.1323 105.412 21.3909C105.285 21.6495 105.098 21.873 104.853 22.0615C104.612 22.2456 104.323 22.3902 103.985 22.4954C103.652 22.5962 103.277 22.6466 102.861 22.6466C102.234 22.6466 101.704 22.5349 101.27 22.3113C100.836 22.0878 100.507 21.7985 100.284 21.4435C100.06 21.0885 99.9486 20.7138 99.9486 20.3193H101.171C101.189 20.6524 101.285 20.9176 101.461 21.1148C101.636 21.3076 101.851 21.4457 102.105 21.529C102.359 21.6079 102.611 21.6473 102.861 21.6473C103.194 21.6473 103.472 21.6035 103.696 21.5158C103.924 21.4282 104.097 21.3076 104.215 21.1542C104.334 21.0008 104.393 20.8255 104.393 20.6283ZM111.401 21.2989V17.637C111.401 17.3565 111.344 17.1132 111.23 16.9072C111.121 16.6968 110.954 16.5347 110.731 16.4207C110.507 16.3068 110.231 16.2498 109.902 16.2498C109.595 16.2498 109.326 16.3024 109.093 16.4076C108.866 16.5128 108.686 16.6508 108.554 16.8217C108.427 16.9927 108.364 17.1768 108.364 17.374H107.147C107.147 17.1198 107.213 16.8678 107.345 16.6179C107.476 16.3681 107.665 16.1424 107.91 15.9408C108.16 15.7348 108.458 15.5726 108.804 15.4543C109.155 15.3316 109.545 15.2702 109.974 15.2702C110.492 15.2702 110.947 15.3579 111.342 15.5332C111.741 15.7085 112.052 15.9737 112.275 16.3287C112.503 16.6793 112.617 17.1198 112.617 17.6501V20.9636C112.617 21.2003 112.637 21.4523 112.677 21.7196C112.72 21.987 112.784 22.2171 112.867 22.4099V22.5151H111.598C111.537 22.3749 111.489 22.1886 111.454 21.9563C111.419 21.7196 111.401 21.5005 111.401 21.2989ZM111.611 18.2024L111.625 19.057H110.395C110.049 19.057 109.74 19.0855 109.468 19.1425C109.196 19.1951 108.969 19.2762 108.784 19.3857C108.6 19.4953 108.46 19.6334 108.364 19.7999C108.267 19.9621 108.219 20.1528 108.219 20.3719C108.219 20.5954 108.27 20.7992 108.37 20.9833C108.471 21.1674 108.622 21.3142 108.824 21.4238C109.03 21.529 109.282 21.5816 109.58 21.5816C109.953 21.5816 110.281 21.5027 110.566 21.3449C110.851 21.1871 111.077 20.9943 111.243 20.7664C111.414 20.5384 111.506 20.3171 111.519 20.1023L112.039 20.6875C112.008 20.8715 111.925 21.0754 111.789 21.2989C111.653 21.5224 111.471 21.7372 111.243 21.9432C111.02 22.1448 110.752 22.3135 110.441 22.4494C110.134 22.5809 109.788 22.6466 109.402 22.6466C108.92 22.6466 108.497 22.5524 108.134 22.3639C107.774 22.1755 107.494 21.9234 107.292 21.6079C107.095 21.2879 106.996 20.9307 106.996 20.5363C106.996 20.1549 107.071 19.8197 107.22 19.5304C107.369 19.2367 107.584 18.9935 107.864 18.8006C108.145 18.6034 108.482 18.4544 108.877 18.3536C109.271 18.2528 109.711 18.2024 110.198 18.2024H111.611ZM119.139 15.4017H120.244V22.3639C120.244 22.9907 120.116 23.5254 119.862 23.9681C119.608 24.4107 119.253 24.746 118.797 24.9739C118.346 25.2062 117.824 25.3224 117.233 25.3224C116.987 25.3224 116.698 25.2829 116.365 25.204C116.036 25.1295 115.712 25.0002 115.392 24.8162C115.076 24.6365 114.811 24.3932 114.596 24.0864L115.234 23.3632C115.532 23.7226 115.843 23.9725 116.167 24.1127C116.496 24.253 116.821 24.3231 117.14 24.3231C117.526 24.3231 117.859 24.2508 118.14 24.1061C118.42 23.9615 118.637 23.7467 118.791 23.4618C118.948 23.1813 119.027 22.8351 119.027 22.4231V16.9664L119.139 15.4017ZM114.241 19.0373V18.8992C114.241 18.3558 114.305 17.8627 114.432 17.42C114.563 16.973 114.75 16.5895 114.991 16.2695C115.236 15.9495 115.532 15.7041 115.878 15.5332C116.224 15.3579 116.615 15.2702 117.048 15.2702C117.496 15.2702 117.886 15.3491 118.219 15.5069C118.556 15.6603 118.841 15.886 119.073 16.184C119.31 16.4777 119.496 16.8327 119.632 17.2491C119.768 17.6655 119.862 18.1366 119.915 18.6626V19.2674C119.867 19.789 119.772 20.2579 119.632 20.6743C119.496 21.0907 119.31 21.4457 119.073 21.7394C118.841 22.033 118.556 22.2587 118.219 22.4165C117.881 22.5699 117.487 22.6466 117.035 22.6466C116.61 22.6466 116.224 22.5568 115.878 22.3771C115.536 22.1974 115.243 21.9454 114.997 21.621C114.752 21.2967 114.563 20.9154 114.432 20.4771C114.305 20.0344 114.241 19.5545 114.241 19.0373ZM115.457 18.8992V19.0373C115.457 19.3923 115.493 19.7254 115.563 20.0366C115.637 20.3478 115.749 20.6217 115.898 20.8584C116.051 21.0951 116.246 21.2813 116.483 21.4172C116.72 21.5487 117.002 21.6145 117.331 21.6145C117.734 21.6145 118.067 21.529 118.33 21.3581C118.593 21.1871 118.802 20.9614 118.955 20.6809C119.113 20.4004 119.236 20.0958 119.323 19.7671V18.1826C119.275 17.9416 119.2 17.7093 119.1 17.4858C119.003 17.2578 118.876 17.0562 118.718 16.8809C118.565 16.7012 118.374 16.5588 118.146 16.4536C117.918 16.3484 117.651 16.2958 117.344 16.2958C117.011 16.2958 116.724 16.3659 116.483 16.5062C116.246 16.642 116.051 16.8305 115.898 17.0716C115.749 17.3082 115.637 17.5844 115.563 17.8999C115.493 18.2111 115.457 18.5442 115.457 18.8992ZM125.043 22.6466C124.548 22.6466 124.098 22.5633 123.695 22.3968C123.296 22.2259 122.952 21.987 122.663 21.6802C122.378 21.3734 122.159 21.0096 122.006 20.5889C121.852 20.1681 121.775 19.7079 121.775 19.2082V18.9321C121.775 18.3536 121.861 17.8386 122.032 17.3871C122.203 16.9313 122.435 16.5456 122.729 16.2301C123.022 15.9145 123.355 15.6756 123.728 15.5135C124.101 15.3513 124.486 15.2702 124.885 15.2702C125.394 15.2702 125.832 15.3579 126.2 15.5332C126.573 15.7085 126.877 15.9539 127.114 16.2695C127.35 16.5807 127.526 16.9489 127.64 17.374C127.754 17.7948 127.811 18.255 127.811 18.7546V19.3003H122.499V18.3076H126.594V18.2155C126.577 17.8999 126.511 17.5931 126.397 17.2951C126.288 16.9971 126.112 16.7516 125.871 16.5588C125.63 16.3659 125.301 16.2695 124.885 16.2695C124.609 16.2695 124.355 16.3287 124.122 16.447C123.89 16.561 123.691 16.7319 123.524 16.9598C123.358 17.1877 123.228 17.466 123.136 17.7948C123.044 18.1235 122.998 18.5026 122.998 18.9321V19.2082C122.998 19.5457 123.044 19.8635 123.136 20.1615C123.233 20.4552 123.371 20.7138 123.55 20.9373C123.735 21.1608 123.956 21.3361 124.215 21.4632C124.477 21.5903 124.776 21.6539 125.109 21.6539C125.538 21.6539 125.902 21.5662 126.2 21.3909C126.498 21.2156 126.759 20.9811 126.982 20.6875L127.719 21.2726C127.565 21.5049 127.37 21.7262 127.134 21.9366C126.897 22.147 126.605 22.3179 126.259 22.4494C125.917 22.5809 125.512 22.6466 125.043 22.6466Z" fill="#9DA3A7"/>
<g clip-path="url(#clip1_1394_25105)">
<path d="M178.325 13.1181L184.408 19.2008C185.577 20.3697 185.577 22.2633 184.408 23.4322C183.239 24.6011 181.345 24.6011 180.176 23.4322L173.565 16.8206C172.835 16.0907 172.835 14.9059 173.565 14.176C174.295 13.4461 175.48 13.4461 176.209 14.176L181.763 19.7297C182.054 20.0206 182.054 20.4966 181.763 20.7876C181.472 21.0785 180.996 21.0785 180.705 20.7876L175.681 15.7628L174.887 16.5561L179.912 21.5809C180.642 22.3109 181.827 22.3109 182.557 21.5809C183.287 20.851 183.287 19.6662 182.557 18.9363L177.003 13.3826C175.834 12.2137 173.94 12.2137 172.771 13.3826C171.603 14.5515 171.603 16.4451 172.771 17.614L179.383 24.2256C180.991 25.8335 183.593 25.8335 185.201 24.2256C186.809 22.6176 186.809 20.0153 185.201 18.4074L179.119 12.3247L178.325 13.1181Z" fill="#9DA3A7"/>
</g>
<g clip-path="url(#clip2_1394_25105)">
<path d="M205.962 21.0341C207.284 21.0341 208.356 19.9625 208.356 18.6405C208.356 17.3185 207.284 16.2468 205.962 16.2468C204.641 16.2468 203.569 17.3185 203.569 18.6405C203.569 19.9625 204.641 21.0341 205.962 21.0341Z" fill="#9DA3A7"/>
<path d="M203.573 11.0105L202.204 12.5065H199.832C199.01 12.5065 198.336 13.1797 198.336 14.0026V22.9787C198.336 23.8016 199.01 24.4748 199.832 24.4748H211.801C212.624 24.4748 213.297 23.8016 213.297 22.9787V14.0026C213.297 13.1797 212.624 12.5065 211.801 12.5065H209.429L208.061 11.0105H203.573ZM205.817 22.2307C203.752 22.2307 202.077 20.5552 202.077 18.4907C202.077 16.4261 203.752 14.7506 205.817 14.7506C207.881 14.7506 209.557 16.4261 209.557 18.4907C209.557 20.5552 207.881 22.2307 205.817 22.2307Z" fill="#9DA3A7"/>
</g>
<defs>
<clipPath id="clip0_1394_25105">
<rect width="17.9524" height="17.9524" fill="white" transform="translate(9.83545 9.51514)"/>
</clipPath>
<clipPath id="clip1_1394_25105">
<rect width="17.9524" height="17.9524" fill="white" transform="translate(169.911 9.51514)"/>
</clipPath>
<clipPath id="clip2_1394_25105">
<rect width="17.9524" height="17.9524" fill="white" transform="translate(196.839 9.51514)"/>
</clipPath>
</defs>
</svg>
