<svg width="19" height="19" viewBox="0 0 19 19" fill="none" xmlns="http://www.w3.org/2000/svg">
<g clip-path="url(#clip0_1394_25097)">
<path d="M9.19964 6.30578C10.0225 6.30578 10.6957 5.63257 10.6957 4.80975C10.6957 3.98693 10.0225 3.31372 9.19964 3.31372C8.37683 3.31372 7.70361 3.98693 7.70361 4.80975C7.70361 5.63257 8.37683 6.30578 9.19964 6.30578ZM9.19964 7.80181C8.37683 7.80181 7.70361 8.47503 7.70361 9.29784C7.70361 10.1207 8.37683 10.7939 9.19964 10.7939C10.0225 10.7939 10.6957 10.1207 10.6957 9.29784C10.6957 8.47503 10.0225 7.80181 9.19964 7.80181ZM9.19964 12.2899C8.37683 12.2899 7.70361 12.9631 7.70361 13.7859C7.70361 14.6088 8.37683 15.282 9.19964 15.282C10.0225 15.282 10.6957 14.6088 10.6957 13.7859C10.6957 12.9631 10.0225 12.2899 9.19964 12.2899Z" fill="white"/>
</g>
<defs>
<clipPath id="clip0_1394_25097">
<rect width="17.9524" height="17.9524" fill="white" transform="translate(0.224121 0.320801)"/>
</clipPath>
</defs>
</svg>
