<svg width="79" height="22" viewBox="0 0 79 22" fill="none" xmlns="http://www.w3.org/2000/svg">
<path d="M10.0322 11.897C10.0322 11.3447 10.4799 10.897 11.0322 10.897H12.0322C12.5845 10.897 13.0322 11.3447 13.0322 11.897V19.897C13.0322 20.4493 12.5845 20.897 12.0322 20.897H11.0322C10.4799 20.897 10.0322 20.4493 10.0322 19.897V11.897Z" fill="#171717"/>
<path d="M15.0322 9.89697C15.0322 9.34469 15.4799 8.89697 16.0322 8.89697H17.0322C17.5845 8.89697 18.0322 9.34469 18.0322 9.89697V19.897C18.0322 20.4493 17.5845 20.897 17.0322 20.897H16.0322C15.4799 20.897 15.0322 20.4493 15.0322 19.897V9.89697Z" fill="#171717"/>
<path d="M5.03223 15.397C5.03223 14.8447 5.47994 14.397 6.03223 14.397H7.03223C7.58451 14.397 8.03223 14.8447 8.03223 15.397V19.897C8.03223 20.4493 7.58451 20.897 7.03223 20.897H6.03223C5.47994 20.897 5.03223 20.4493 5.03223 19.897V15.397Z" fill="#171717"/>
<path d="M0.0322266 17.897C0.0322266 17.3447 0.479942 16.897 1.03223 16.897H2.03223C2.58451 16.897 3.03223 17.3447 3.03223 17.897V19.897C3.03223 20.4493 2.58451 20.897 2.03223 20.897H1.03223C0.479942 20.897 0.0322266 20.4493 0.0322266 19.897V17.897Z" fill="#171717"/>
<path fill-rule="evenodd" clip-rule="evenodd" d="M34.5327 11.4845C36.9992 11.4846 39.3715 12.452 41.1591 14.1868C41.2937 14.3207 41.5089 14.319 41.6415 14.183L42.9282 12.8574C42.9954 12.7884 43.0328 12.695 43.0322 12.5977C43.0317 12.5005 42.9932 12.4075 42.9253 12.3393C38.2333 7.74953 30.8313 7.74953 26.1394 12.3393C26.0714 12.4074 26.0329 12.5004 26.0322 12.5977C26.0316 12.6949 26.069 12.7884 26.1361 12.8574L27.4232 14.183C27.5557 14.3192 27.771 14.3209 27.9055 14.1868C29.6934 12.4519 32.0659 11.4845 34.5327 11.4845ZM34.5681 15.4863C35.9234 15.4863 37.2302 16.0004 38.2348 16.929C38.3706 17.0607 38.5847 17.0579 38.7171 16.9225L40.0024 15.5969C40.0701 15.5274 40.1076 15.4331 40.1067 15.3351C40.1057 15.2371 40.0663 15.1435 39.9972 15.0754C36.9381 12.1708 32.2008 12.1708 29.1417 15.0754C29.0726 15.1435 29.0331 15.2371 29.0322 15.3351C29.0313 15.4332 29.069 15.5275 29.1369 15.5969L30.4218 16.9225C30.5542 17.0579 30.7682 17.0607 30.9041 16.929C31.908 16.001 33.2138 15.4869 34.5681 15.4863ZM37.1818 18.0737C37.1837 18.172 37.1459 18.2667 37.0772 18.3356L34.8539 20.6258C34.7887 20.6931 34.6998 20.731 34.6071 20.731C34.5144 20.731 34.4256 20.6931 34.3604 20.6258L32.1367 18.3356C32.0681 18.2667 32.0303 18.1719 32.0323 18.0736C32.0343 17.9753 32.076 17.8822 32.1475 17.8164C33.5674 16.5905 35.6469 16.5905 37.0668 17.8164C37.1382 17.8823 37.1798 17.9754 37.1818 18.0737Z" fill="#171717"/>
<path opacity="0.4" d="M77.0322 13.897V18.1173C77.8813 17.7599 78.4334 16.9284 78.4334 16.0071C78.4334 15.0859 77.8813 14.2544 77.0322 13.897Z" fill="black"/>
<g clip-path="url(#clip0_1749_4350)">
<rect x="51.0322" y="8.89697" width="25" height="13" rx="4" fill="black" fill-opacity="0.35"/>
<path fill-rule="evenodd" clip-rule="evenodd" d="M51.0322 8.89697H72.0322V21.897H51.0322V8.89697Z" fill="#171717"/>
</g>
<path d="M61.6595 18.5063C61.1321 18.8872 60.4453 19.0776 59.5989 19.0776C58.7526 19.0776 58.0673 18.8872 57.5432 18.5063C57.0192 18.1255 56.7571 17.6291 56.7571 17.0171C56.7571 16.5744 56.8971 16.1903 57.177 15.8647C57.4602 15.536 57.8378 15.3195 58.3098 15.2153V15.1274C57.9257 15.0396 57.6181 14.8556 57.387 14.5757C57.1559 14.2957 57.0403 13.9686 57.0403 13.5942C57.0403 13.0311 57.2796 12.5705 57.7581 12.2124C58.2399 11.8511 58.8551 11.6704 59.6038 11.6704C60.3492 11.6704 60.9612 11.8511 61.4397 12.2124C61.9215 12.5705 62.1624 13.0311 62.1624 13.5942C62.1624 13.9686 62.0468 14.2957 61.8157 14.5757C61.5878 14.8524 61.2802 15.0363 60.8929 15.1274V15.2153C61.3616 15.3032 61.7376 15.5116 62.0208 15.8403C62.3072 16.1659 62.4505 16.5532 62.4505 17.0024C62.4505 17.6209 62.1868 18.1222 61.6595 18.5063ZM58.6516 17.6616C58.8958 17.8634 59.2115 17.9644 59.5989 17.9644C59.9863 17.9644 60.302 17.8634 60.5462 17.6616C60.7903 17.4598 60.9124 17.1994 60.9124 16.8804C60.9124 16.5581 60.7903 16.2961 60.5462 16.0942C60.302 15.8924 59.9863 15.7915 59.5989 15.7915C59.2115 15.7915 58.8958 15.8924 58.6516 16.0942C58.4108 16.2961 58.2903 16.5581 58.2903 16.8804C58.2903 17.1994 58.4108 17.4598 58.6516 17.6616ZM58.803 14.4341C59.0081 14.6131 59.2734 14.7026 59.5989 14.7026C59.9244 14.7026 60.1897 14.6131 60.3948 14.4341C60.6031 14.2518 60.7073 14.019 60.7073 13.7358C60.7073 13.4494 60.6031 13.2166 60.3948 13.0376C60.1897 12.8553 59.9244 12.7642 59.5989 12.7642C59.2734 12.7642 59.0081 12.8553 58.803 13.0376C58.5979 13.2166 58.4954 13.4494 58.4954 13.7358C58.4954 14.019 58.5979 14.2518 58.803 14.4341ZM68.5603 18.0962C68.0655 18.7505 67.3819 19.0776 66.5095 19.0776C65.6371 19.0776 64.9519 18.7505 64.4538 18.0962C63.959 17.4386 63.7116 16.5272 63.7116 15.3618C63.7116 14.1997 63.959 13.2948 64.4538 12.647C64.9519 11.9959 65.6371 11.6704 66.5095 11.6704C67.3786 11.6704 68.0622 11.9959 68.5603 12.647C69.0583 13.298 69.3073 14.2046 69.3073 15.3667C69.3073 16.5288 69.0583 17.4386 68.5603 18.0962ZM65.5476 17.2271C65.7787 17.66 66.0993 17.8765 66.5095 17.8765C66.9196 17.8765 67.2387 17.6616 67.4665 17.2319C67.6976 16.799 67.8132 16.1756 67.8132 15.3618C67.8132 14.5545 67.6976 13.9393 67.4665 13.5161C67.2387 13.0897 66.9196 12.8765 66.5095 12.8765C66.1026 12.8765 65.7836 13.0897 65.5525 13.5161C65.3213 13.9425 65.2058 14.5578 65.2058 15.3618C65.2058 16.1724 65.3197 16.7941 65.5476 17.2271Z" fill="white"/>
<defs>
<clipPath id="clip0_1749_4350">
<rect x="51.0322" y="8.89697" width="25" height="13" rx="4" fill="white"/>
</clipPath>
</defs>
</svg>
