<svg width="232" height="130" viewBox="0 0 232 130" fill="none" xmlns="http://www.w3.org/2000/svg">
<path d="M232 0H0V130H232V0Z" fill="#F0F0F0"/>
<path d="M136.625 43.708H95.375C94.3804 43.708 93.4266 44.1031 92.7233 44.8064C92.0201 45.5096 91.625 46.4634 91.625 47.458V81.208C91.625 82.2026 92.0201 83.1564 92.7233 83.8597C93.4266 84.5629 94.3804 84.958 95.375 84.958H136.625C137.62 84.958 138.573 84.5629 139.277 83.8597C139.98 83.1564 140.375 82.2026 140.375 81.208V47.458C140.375 46.4634 139.98 45.5096 139.277 44.8064C138.573 44.1031 137.62 43.708 136.625 43.708ZM122.562 54.958C123.119 54.958 123.663 55.123 124.125 55.432C124.588 55.741 124.948 56.1803 125.161 56.6942C125.374 57.2081 125.429 57.7736 125.321 58.3192C125.212 58.8648 124.945 59.3659 124.551 59.7592C124.158 60.1526 123.657 60.4204 123.111 60.529C122.566 60.6375 122 60.5818 121.486 60.3689C120.972 60.156 120.533 59.7956 120.224 59.333C119.915 58.8705 119.75 58.3268 119.75 57.7705C119.75 57.0246 120.046 56.3092 120.574 55.7818C121.101 55.2543 121.817 54.958 122.562 54.958ZM95.375 81.208V74.6455L107.562 62.458L126.312 81.208H95.375ZM136.625 81.208H131.616L123.179 72.7705L127.866 68.083L136.625 76.8439V81.208Z" fill="#8C8C8C"/>
</svg>
