<svg width="21" height="20" viewBox="0 0 21 20" fill="none" xmlns="http://www.w3.org/2000/svg">
<path d="M7.81115 4.33103L5.79834 2.06662C5.32486 1.53395 4.57863 1.28489 3.96824 1.6528C3.64446 1.84796 3.33725 2.08358 3.05308 2.3354C1.63364 3.5933 1.32945 5.62941 2.00513 7.40158C2.71267 9.25729 3.94683 11.7131 5.99545 13.7618C9.22201 16.9883 12.7587 18.5927 15.6573 18.5927C17.4886 18.5927 18.8379 17.6886 19.3242 16.5946C19.5627 16.0582 19.2551 15.4806 18.7967 15.1139L15.8982 12.7951C15.1925 12.2305 14.1897 12.2305 13.4839 12.7951L12.7948 13.3464C12.4821 13.5966 12.0457 13.6293 11.7057 13.4178C9.47661 12.0315 8.38563 10.813 7.22687 8.50815C7.06078 8.1778 7.10823 7.78143 7.33921 7.4927L7.87581 6.82196C8.46396 6.08677 8.43665 5.03471 7.81115 4.33103Z" stroke="#468CF7" stroke-width="1.44927"/>
</svg>
