<svg width="34" height="34" viewBox="0 0 34 34" fill="none" xmlns="http://www.w3.org/2000/svg">
<circle cx="16.9438" cy="16.897" r="16.5" fill="white"/>
<path fill-rule="evenodd" clip-rule="evenodd" d="M21.3027 12.4348C22.5361 12.4348 23.5361 11.4015 23.5361 10.1268C23.5361 8.85216 22.5361 7.81885 21.3027 7.81885C20.0692 7.81885 19.0693 8.85216 19.0693 10.1268C19.0693 11.4015 20.0692 12.4348 21.3027 12.4348Z" fill="#8055FA"/>
<path fill-rule="evenodd" clip-rule="evenodd" d="M21.3027 17.973C22.5361 17.973 23.5361 16.9398 23.5361 15.6653C23.5361 14.3908 22.5361 13.3577 21.3027 13.3577C20.0692 13.3577 19.0693 14.3908 19.0693 15.6653C19.0693 16.9398 20.0692 17.973 21.3027 17.973Z" fill="#7550FB"/>
<path fill-rule="evenodd" clip-rule="evenodd" d="M21.3027 23.716C22.5361 23.716 23.5361 22.6827 23.5361 21.4081C23.5361 20.1334 22.5361 19.1001 21.3027 19.1001C20.0692 19.1001 19.0693 20.1334 19.0693 21.4081C19.0693 22.6827 20.0692 23.716 21.3027 23.716Z" fill="#6A4AFC"/>
<path fill-rule="evenodd" clip-rule="evenodd" d="M15.7467 17.973C16.98 17.973 17.9798 16.9398 17.9798 15.6653C17.9798 14.3908 16.98 13.3577 15.7467 13.3577C14.5134 13.3577 13.5137 14.3908 13.5137 15.6653C13.5137 16.9398 14.5134 17.973 15.7467 17.973Z" fill="#6045FD"/>
<path fill-rule="evenodd" clip-rule="evenodd" d="M15.7438 23.716C16.9771 23.716 17.9769 22.6827 17.9769 21.4081C17.9769 20.1334 16.9771 19.1001 15.7438 19.1001C14.5105 19.1001 13.5107 20.1334 13.5107 21.4081C13.5107 22.6827 14.5105 23.716 15.7438 23.716Z" fill="#553FFE"/>
<path fill-rule="evenodd" clip-rule="evenodd" d="M10.3862 23.716C11.6196 23.716 12.6195 22.6827 12.6195 21.4081C12.6195 20.1334 11.6196 19.1001 10.3862 19.1001C9.15274 19.1001 8.15283 20.1334 8.15283 21.4081C8.15283 22.6827 9.15274 23.716 10.3862 23.716Z" fill="#4A3AFF"/>
</svg>
