<svg width="394" height="72" viewBox="0 0 394 72" fill="none" xmlns="http://www.w3.org/2000/svg">
<rect width="393" height="71" transform="translate(0.104492 0.222168)" fill="#F2F2F2"/>
<path d="M21.896 11.1492C21.896 10.7661 21.5855 10.4556 21.2024 10.4556C20.8193 10.4556 20.5088 10.7661 20.5088 11.1492V18.7788H12.8792C12.4961 18.7788 12.1855 19.0893 12.1855 19.4724C12.1855 19.8555 12.4961 20.166 12.8792 20.166H20.5088V27.7957C20.5088 28.1787 20.8193 28.4893 21.2024 28.4893C21.5855 28.4893 21.896 28.1787 21.896 27.7957V20.166H29.5256C29.9087 20.166 30.2192 19.8555 30.2192 19.4724C30.2192 19.0893 29.9087 18.7788 29.5256 18.7788H21.896V11.1492Z" fill="#468CF7"/>
<rect x="43.4998" y="6.17217" width="263.878" height="26.6" rx="13.3" fill="white"/>
<rect x="43.4998" y="6.17217" width="263.878" height="26.6" rx="13.3" stroke="#C9C4BB" stroke-width="0.4"/>
<path fill-rule="evenodd" clip-rule="evenodd" d="M284.695 12.1205H292.078C293.861 12.1205 295.307 13.5665 295.307 15.3502V18.2305C295.307 18.2701 295.307 18.3097 295.305 18.3492H293.002C290.071 18.3492 287.696 20.7247 287.696 23.6551V25.9622H284.695C282.912 25.9622 281.466 24.5162 281.466 22.7324V15.3502C281.466 13.5665 282.912 12.1205 284.695 12.1205ZM289.08 25.822C289.65 25.6481 290.168 25.3175 290.569 24.8592L294.508 20.3573C294.676 20.1654 294.819 19.9558 294.936 19.7333H293.002C290.836 19.7333 289.08 21.4892 289.08 23.6551V25.822ZM292.078 10.7363H284.695C282.147 10.7363 280.082 12.802 280.082 15.3502V22.7324C280.082 25.2806 282.147 27.3463 284.695 27.3463H288.138C289.469 27.3463 290.735 26.772 291.611 25.7707L295.55 21.2688C296.286 20.4277 296.692 19.3481 296.692 18.2305V15.3502C296.692 12.802 294.626 10.7363 292.078 10.7363Z" fill="#468CF7"/>
<path fill-rule="evenodd" clip-rule="evenodd" d="M331.963 11.9349C332.14 11.4927 332.568 11.2028 333.044 11.2028H336.111C336.588 11.2028 337.016 11.4927 337.193 11.9349L337.656 13.0929C337.762 13.3582 338.019 13.5321 338.305 13.5321H340.168C341.841 13.5321 343.196 14.8879 343.196 16.5603V23.0825C343.196 24.7549 341.841 26.1107 340.168 26.1107H328.987C327.315 26.1107 325.959 24.7549 325.959 23.0825V16.5603C325.959 14.8879 327.315 13.5321 328.987 13.5321H330.851C331.137 13.5321 331.394 13.3582 331.5 13.0929L331.963 11.9349ZM333.044 9.80518C331.996 9.80518 331.054 10.4431 330.665 11.4159L330.378 12.1345H328.987C326.543 12.1345 324.562 14.116 324.562 16.5603V23.0825C324.562 25.5268 326.543 27.5083 328.987 27.5083H340.168C342.612 27.5083 344.594 25.5268 344.594 23.0825V16.5603C344.594 14.116 342.612 12.1345 340.168 12.1345H338.778L338.49 11.4159C338.101 10.4431 337.159 9.80518 336.111 9.80518H333.044ZM337.839 19.1226C337.839 20.9237 336.379 22.3837 334.578 22.3837C332.777 22.3837 331.317 20.9237 331.317 19.1226C331.317 17.3215 332.777 15.8615 334.578 15.8615C336.379 15.8615 337.839 17.3215 337.839 19.1226ZM339.236 19.1226C339.236 21.6955 337.151 23.7813 334.578 23.7813C332.005 23.7813 329.919 21.6955 329.919 19.1226C329.919 16.5497 332.005 14.4639 334.578 14.4639C337.151 14.4639 339.236 16.5497 339.236 19.1226Z" fill="#468CF7"/>
<path fill-rule="evenodd" clip-rule="evenodd" d="M372.454 13.2578V20.3872C372.454 21.7887 371.318 22.9248 369.916 22.9248C368.515 22.9248 367.379 21.7887 367.379 20.3873V13.2578C367.379 11.8564 368.515 10.7203 369.916 10.7203C371.318 10.7203 372.454 11.8564 372.454 13.2578ZM365.931 13.2578C365.931 11.0568 367.715 9.27246 369.916 9.27246C372.117 9.27246 373.901 11.0568 373.901 13.2578V20.3872C373.901 22.5883 372.117 24.3726 369.916 24.3726C367.715 24.3726 365.931 22.5883 365.931 20.3873V13.2578ZM363.666 20.5976C363.666 20.1978 363.341 19.8737 362.942 19.8737C362.542 19.8737 362.218 20.1978 362.218 20.5976C362.218 24.446 365.31 27.5493 369.192 27.8957V30.5071C369.192 30.9069 369.516 31.231 369.916 31.231C370.316 31.231 370.64 30.9069 370.64 30.5071V27.8957C374.522 27.5493 377.614 24.446 377.614 20.5976C377.614 20.1978 377.29 19.8737 376.891 19.8737C376.491 19.8737 376.167 20.1978 376.167 20.5976C376.167 23.8099 373.406 26.48 369.916 26.48C366.427 26.48 363.666 23.8099 363.666 20.5976Z" fill="#468CF7"/>
<rect x="129.604" y="58.2222" width="134" height="5" rx="2.5" fill="#171717"/>
</svg>
