<svg width="24" height="18" viewBox="0 0 24 18" fill="none" xmlns="http://www.w3.org/2000/svg">
<path fill-rule="evenodd" clip-rule="evenodd" d="M5.03356 0.773682C2.49873 0.773682 0.443848 2.82857 0.443848 5.3634V12.4309C0.443848 14.9657 2.49874 17.0206 5.03357 17.0206H13.0259C15.5256 17.0206 17.5587 15.0222 17.6144 12.5358L20.4356 14.73C21.5463 15.5939 23.1647 14.8024 23.1647 13.3953V4.39876C23.1647 2.99164 21.5463 2.20011 20.4356 3.064L17.6144 5.25828C17.5585 2.772 15.5256 0.773682 13.0259 0.773682H5.03356ZM1.89323 5.3634C1.89323 3.62904 3.29921 2.22307 5.03356 2.22307H13.0259C14.7602 2.22307 16.1662 3.62904 16.1662 5.3634V12.4309C16.1662 14.1652 14.7602 15.5712 13.0259 15.5712H5.03357C3.29921 15.5712 1.89323 14.1652 1.89323 12.4309V5.3634ZM21.3255 4.20808C21.4841 4.08466 21.7153 4.19774 21.7153 4.39876V13.3953C21.7153 13.5963 21.4841 13.7094 21.3255 13.586L17.6156 10.7006V7.09349L21.3255 4.20808Z" fill="#468CF7"/>
</svg>
